<svg class="main-svg" xmlns="http://www.w3.org/2000/svg" xmlns:xlink="http://www.w3.org/1999/xlink" width="700" height="500" viewBox="0 0 700 500"><rect x="0" y="0" width="700" height="500" style="fill: rgb(255, 255, 255); fill-opacity: 1;"/><defs id="defs-d709a7"><g class="clips"><clipPath id="clipd709a7xyplot" class="plotclip"><rect width="527" height="320"/></clipPath><clipPath class="axesclip" id="clipd709a7x"><rect x="80" y="0" width="527" height="500"/></clipPath><clipPath class="axesclip" id="clipd709a7y"><rect x="0" y="100" width="700" height="320"/></clipPath><clipPath class="axesclip" id="clipd709a7xy"><rect x="80" y="100" width="527" height="320"/></clipPath></g><g class="gradients"/></defs><g class="bglayer"/><g class="layer-below"><g class="imagelayer"/><g class="shapelayer"/></g><g class="cartesianlayer"><g class="subplot xy"><g class="layer-subplot"><g class="shapelayer"/><g class="imagelayer"/></g><g class="gridlayer"><g class="x"><path class="xgrid crisp" transform="translate(145.1,0)" d="M0,100v320" style="stroke: rgb(238, 238, 238); stroke-opacity: 1; stroke-width: 1px;"/><path class="xgrid crisp" transform="translate(215.82,0)" d="M0,100v320" style="stroke: rgb(238, 238, 238); stroke-opacity: 1; stroke-width: 1px;"/><path class="xgrid crisp" transform="translate(286.53999999999996,0)" d="M0,100v320" style="stroke: rgb(238, 238, 238); stroke-opacity: 1; stroke-width: 1px;"/><path class="xgrid crisp" transform="translate(357.45,0)" d="M0,100v320" style="stroke: rgb(238, 238, 238); stroke-opacity: 1; stroke-width: 1px;"/><path class="xgrid crisp" transform="translate(428.17,0)" d="M0,100v320" style="stroke: rgb(238, 238, 238); stroke-opacity: 1; stroke-width: 1px;"/><path class="xgrid crisp" transform="translate(498.89,0)" d="M0,100v320" style="stroke: rgb(238, 238, 238); stroke-opacity: 1; stroke-width: 1px;"/><path class="xgrid crisp" transform="translate(569.61,0)" d="M0,100v320" style="stroke: rgb(238, 238, 238); stroke-opacity: 1; stroke-width: 1px;"/></g><g class="y"><path class="ygrid crisp" transform="translate(0,357.26)" d="M80,0h527" style="stroke: rgb(238, 238, 238); stroke-opacity: 1; stroke-width: 1px;"/><path class="ygrid crisp" transform="translate(0,305.32)" d="M80,0h527" style="stroke: rgb(238, 238, 238); stroke-opacity: 1; stroke-width: 1px;"/><path class="ygrid crisp" transform="translate(0,253.37)" d="M80,0h527" style="stroke: rgb(238, 238, 238); stroke-opacity: 1; stroke-width: 1px;"/><path class="ygrid crisp" transform="translate(0,201.42000000000002)" d="M80,0h527" style="stroke: rgb(238, 238, 238); stroke-opacity: 1; stroke-width: 1px;"/><path class="ygrid crisp" transform="translate(0,149.47)" d="M80,0h527" style="stroke: rgb(238, 238, 238); stroke-opacity: 1; stroke-width: 1px;"/></g></g><g class="zerolinelayer"><path class="yzl zl crisp" transform="translate(0,409.21)" d="M80,0h527" style="stroke: rgb(68, 68, 68); stroke-opacity: 1; stroke-width: 1px;"/></g><path class="xlines-below"/><path class="ylines-below"/><g class="overlines-below"/><g class="xaxislayer-below"/><g class="yaxislayer-below"/><g class="overaxes-below"/><g class="plot" transform="translate(80, 100)" clip-path="url(#clipd709a7xyplot)"><g class="scatterlayer mlayer"><g class="trace scatter tracea47da0e7-2d02-46c4-aae3-efdcb9297738" style="stroke-miterlimit: 2; opacity: 1;"><g class="fills"/><g class="errorbars"/><g class="lines"><path class="js-line" d="M0,41.74L4.07,34.53L4.46,32.11L4.65,32.16L5.04,29L5.23,30.42L5.81,29.15L6.01,28.69L6.97,16.95L7.75,25.5L10.27,57.08L20.15,78.33L21.51,76.71L21.7,77.01L22.09,76.52L22.28,75.25L22.86,73.9L23.06,70.34L23.25,70.02L23.44,70.53L23.64,71.01L24.03,71.63L24.22,72.5L24.99,77.63L26.54,79.92L27.32,89.1L27.51,81.35L28.09,81.65L28.29,77.26L29.06,71.3L29.26,71.08L31.39,70.38L31.58,70.67L32.36,71.86L32.74,71.3L33.13,71.98L35.46,59.55L36.23,63.76L36.81,60.79L37.2,80.05L37.39,76.21L37.59,73.9L37.97,75.92L38.17,76.65L38.75,75.64L38.94,75.16L39.91,74L40.11,75.24L40.3,65.9L40.69,73.47L40.88,80.61L41.08,82.22L41.27,75.15L42.82,60.13L43.01,67.15L43.98,64.82L44.18,63.65L44.95,67.83L45.14,76.69L45.72,76.17L45.92,69.64L47.28,42.26L47.47,58.57L47.86,63.38L48.24,58.38L49.02,63.82L49.21,60L49.41,60.12L49.6,57.93L49.99,55.39L50.18,64.39L50.57,57.45L50.76,65.29L51.34,65.16L51.54,66.35L51.93,57.96L52.31,63.89L52.51,62.67L53.86,51.92L54.06,60.8L54.64,61.3L54.83,60.7L55.03,58.58L55.61,61.34L55.8,61.31L55.99,60.56L56.96,52.59L57.16,56.14L57.35,55.95L57.54,52.86L57.93,54.98L58.13,53.95L58.32,53.37L58.51,52.64L58.71,55.83L58.9,56.77L59.48,56.52L59.68,56.59L59.87,55.28L60.06,57.99L60.26,56.55L60.45,56.64L61.61,59.53L61.81,59.6L62.19,59.65L62.39,52.27L63.36,68.92L63.55,69.6L63.74,63.68L64.33,66.67L64.52,66.42L64.91,66.43L65.1,67.19L65.29,67.25L65.49,65.05L65.68,62.85L66.26,63.34L66.46,63.36L66.65,59.01L66.84,63.71L67.04,63.66L67.23,63.55L67.62,63.83L67.81,64.97L68.59,63.53L68.78,107.28L69.36,46.38L69.56,55.67L69.75,59.49L70.33,53.36L70.72,54.66L70.91,54.34L71.3,53.45L71.49,51.32L71.88,52.54L72.08,51.93L72.27,51.75L72.46,52.9L72.66,52.19L72.85,113.23L73.24,46.61L73.63,78.28L75.56,48.61L75.95,43.88L76.14,48.14L76.92,47.25L77.31,55.24L77.5,55.23L77.89,50.58L78.28,56.84L78.47,55.98L78.66,47.53L79.05,60.49L79.44,56.11L79.63,55.21L80.79,64.05L81.18,62.68L81.38,61.42L82.34,57.13L82.73,49.82L83.12,56.07L83.51,53.96L83.7,53.58L84.09,51.32L84.47,52.79L84.67,54.93L86.99,68.05L87.19,68.87L87.77,59.17L87.96,61.84L88.16,65.29L89.13,62.84L89.51,63.01L89.71,62.51L90.48,60.97L90.68,57.62L90.87,59.83L91.45,58.9L91.64,58.48L93.58,51.58L93.78,53.9L93.97,52.77L94.16,39.99L94.36,41.31L94.55,50.55L95.13,51.75L95.33,51.38L95.52,50.14L96.49,49.91L96.68,49.89L97.65,48.23L97.84,43.45L98.04,48.74L98.62,48.36L98.81,48.53L99.59,48.36L99.78,48.23L100.17,48.15L100.36,46.8L101.33,35.21L101.53,35.23L101.72,35.32L101.91,29.32L102.49,48.62L103.08,48.1L103.27,48.03L104.43,47.81L104.63,47.3L106.76,47.25L106.95,45.16L107.34,44.31L107.72,47.77L107.92,47.77L108.69,47.93L108.89,46.94L111.99,29.5L112.18,35.24L112.38,47.76L112.96,44.01L113.15,44.34L113.93,47.37L114.12,46.71L114.51,26.03L115.09,30.24L115.28,37.62L115.47,27.99L115.86,37.67L116.06,48.05L116.44,52.69L116.64,54.48L117.61,59.64L117.8,51.4L118.19,60.68L118.58,56.62L118.77,58.14L118.96,57.92L119.16,55.58L119.35,44.15L119.74,56.58L119.93,56.44L120.9,56.49L121.09,56.62L121.48,57.39L121.68,57.81L123.03,56.5L123.22,56.61L123.61,56.45L123.81,57.01L124,57.92L124.78,59.49L125.16,58.97L125.36,56.15L125.55,58.14L125.74,53.38L126.13,57.68L126.33,58.24L126.52,58.73L126.71,55.32L126.91,52.96L127.1,55.56L127.29,60.33L128.07,62.94L128.26,62.7L128.46,61.73L130.2,57.38L130.39,57.28L131.17,57.27L131.36,53.2L131.75,58.19L132.14,57.89L132.33,57.69L133.3,56.95L133.49,57.25L133.69,57.81L134.85,58.43L135.04,54.73L135.43,58.84L136.01,58.16L136.21,58.02L137.95,57.94L138.14,72.99L138.53,57.68L138.92,57.71L139.11,57.56L139.5,56.63L139.69,57.6L139.89,57.58L140.86,56.27L141.05,56.51L141.44,57.7L141.63,57.22L141.83,56.1L142.6,43.7L142.79,53.81L143.76,62.64L143.96,62.83L144.54,52.58L144.73,64L145.31,62.28L145.51,61.64L147.83,56.18L148.03,56.14L149.96,56.83L150.16,56.38L150.35,46.45L150.74,56.66L150.93,56.66L152.48,54.83L152.68,54.77L152.87,54.83L153.06,66.37L154.03,52.24L154.22,54.88L155,54.86L155.19,54.51L155.39,54.53L155.58,51.67L155.78,54.51L156.36,53.48L156.55,53.53L160.81,53.14L161.01,51.01L161.2,53.08L161.78,52.61L161.97,52.67L162.36,52.26L162.56,46.89L162.94,53.62L163.33,52.7L163.53,52.22L165.08,52.23L165.27,50.71L165.66,53.17L166.04,53.08L166.24,52.98L167.79,52.57L167.98,51.29L168.56,52.5L168.76,51.03L170.89,52.12L171.08,54.11L171.47,54.74L172.05,47.81L172.24,57.11L172.63,51.89L172.83,57.05L173.6,25.81L173.79,55.58L174.57,54.92L174.76,58.94L174.96,56.6L175.54,54.35L175.73,58.39L176.12,48.99L176.31,59.52L176.51,49.67L177.47,54.16L177.67,61.3L178.25,56.79L178.44,56.11L179.99,51.76L180.19,51.65L181.54,50.77L181.74,46.3L182.51,53.43L182.71,53.32L182.9,53.54L184.06,54.56L184.26,54.89L185.03,54.91L185.22,47.11L186.19,57.05L186.39,57.05L186.78,55.02L187.36,55.51L187.55,55.44L189.49,54.97L189.68,54.91L190.07,46.54L190.26,53.41L190.46,52.67L190.65,54.89L191.04,54.78L191.23,49.54L191.43,53.35L195.69,57.61L196.46,59.97L196.66,58.97L196.85,49.62L197.04,59.63L197.63,58.94L197.82,58.72L199.18,56.79L199.95,49.84L200.72,54.56L201.31,52.26L202.66,59.26L203.24,58.78L203.44,59.33L203.63,58.75L203.83,55.54L204.02,59L204.6,58.32L204.79,58.05L204.99,57.5L205.57,50.14L206.34,57.87L206.54,57.59L206.73,57.03L209.44,61.15L209.64,60.43L209.83,60.61L210.03,60.94L210.22,60.74L210.41,59.58L210.61,52.98L210.8,60.02L210.99,59.59L211.19,58.83L211.58,34.32L211.77,54.81L212.35,60.63L212.54,79.34L213.13,75.82L213.32,75.38L213.71,80.51L213.9,80.42L214.09,73.84L214.29,81.83L214.87,81.48L215.06,81.58L217.58,81.35L217.78,81.39L218.55,81.31L218.74,81.48L219.71,81.08L219.91,81.71L220.29,81.17L220.49,78.33L220.68,81.22L220.88,77.9L221.26,81.14L221.46,81.1L222.23,80.9L222.43,66.69L223.2,45.44L223.39,79.98L224.17,81.73L224.36,81.69L224.56,81.63L226.11,79.24L226.3,79.02L227.85,77.38L228.04,78.96L228.24,79.94L228.82,79.53L229.01,79.52L230.56,78.1L230.76,76.59L232.11,73.44L232.31,73.56L232.5,73.4L233.86,73.37L234.05,63.5L234.24,72.68L234.83,72.09L235.02,72.85L236.76,72.25L236.96,72.58L237.73,72.27L237.93,72.01L238.12,72.34L238.31,68.92L239.09,72.13L239.28,72.06L239.47,71.81L239.67,45.16L240.25,70.84L240.44,70.81L240.64,71.07L241.41,70.56L241.61,70.44L244.13,70.46L244.32,70.36L245.87,69.77L246.06,69.68L248.39,69.72L248.58,69.36L249.94,69.39L259.43,85.49L260.01,82.89L260.21,83.18L260.4,83.22L261.56,77.12L261.76,67.97L261.95,44.07L263.11,34L263.5,60.91L263.89,59.17L264.08,59.13L264.28,59.26L264.47,60.83L265.44,65.72L265.63,65.6L265.83,65.79L266.02,66.16L266.21,65.63L266.41,64.28L267.96,56.63L268.15,56.65L269.89,55.79L270.09,55.77L270.28,56.59L270.67,56.06L270.86,55.19L271.25,54.81L271.44,55.16L271.64,55.68L272.61,57.1L272.8,56.94L272.99,56.71L273.19,57.25L273.38,52.3L273.58,55.75L273.77,44.25L274.54,59.49L274.74,59.47L275.13,59.77L275.32,59.24L275.51,58.8L275.9,57.66L276.29,58.15L276.48,58.16L277.64,56.97L277.84,57.62L278.03,57.88L278.42,58.58L278.61,65.47L279.39,57.44L279.58,58L279.97,58.48L280.36,57.92L280.55,57.78L282.1,57.43L282.29,57.37L283.26,57.77L283.46,57.92L285.59,58L285.78,57.86L286.94,57.37L287.14,55.45L287.33,57.02L287.53,51.25L288.11,57.51L288.49,57.48L288.69,57.51L289.85,56.79L290.63,39.96L290.82,56.53L291.4,56.03L291.59,48.68L291.98,43.88L292.37,58.67L292.95,50.01L293.14,59.82L293.72,59.73L293.92,59.33L294.11,55.52L294.5,59.43L294.69,58.08L294.89,57.09L295.28,46.26L295.47,57.89L295.66,56.89L297.02,56.95L297.21,57.36L297.6,57.19L297.79,51.74L297.99,62.61L298.57,57.11L298.76,57.51L299.34,56.89L299.54,57.4L299.73,57.58L300.31,57.15L300.51,52.51L300.7,57.03L301.28,56.27L301.47,55.88L303.03,54.95L303.22,76.95L303.8,49.62L304.19,55.55L304.38,55.54L304.58,55.46L304.77,56.05L304.96,56.64L305.16,58.07L305.54,57.14L305.74,56.78L306.13,54.88L306.32,55.88L306.51,55.7L307.48,54.3L307.68,54.95L307.87,55.92L308.06,56.15L308.26,55.33L308.45,55.35L310.58,54.25L310.78,47.51L311.55,49.9L311.74,53.24L311.94,49.46L312.13,54.88L312.33,54.42L312.52,54.29L313.29,55.36L313.49,49.37L313.68,55.23L313.88,89.49L314.46,53.93L314.65,54.21L314.84,53.98L316.39,53.82L316.78,51.29L317.56,53.63L318.14,52.64L318.91,43.5L319.11,54.34L319.69,54.96L319.88,54.45L320.08,54.32L321.04,54.4L321.24,53.77L323.18,52.3L323.37,52.14L324.34,52.11L324.53,52L325.5,51.48L325.69,51.59L326.66,51.26L326.86,38.89L327.63,51.21L327.83,49.46L328.21,42.46L329.18,51.92L329.38,51.77L329.96,168.3L330.15,51.59L331.12,50.58L331.31,50.61L332.09,50.03L332.28,49.07L332.67,48.64L332.86,49.56L333.64,49.73L333.83,49.54L335.19,49.77L335.38,49.25L335.96,36.58L336.16,49.97L336.93,49.94L337.13,50.92L337.32,41.97L337.71,50.29L337.9,50.26L340.42,48.72L340.61,48.53L341.19,48.3L341.39,49.25L342.36,47.91L342.55,48.02L342.94,47.45L343.13,42.12L343.33,47.36L343.71,40.85L344.49,43.7L344.68,42.39L344.88,43.38L345.07,47.28L345.46,47.82L345.65,47.61L345.84,41.98L346.62,47.33L346.81,47.29L347.01,46.62L347.2,38.54L347.59,46.61L347.78,46.71L347.97,41.84L348.36,46.68L348.56,46.87L349.14,44.85L349.33,46.79L349.53,46.91L350.49,47.3L350.69,47.25L351.46,47.14L351.66,46.95L353.59,44.93L353.98,37.66L354.95,45.99L355.14,43.07L355.53,39.01L355.72,47.02L355.92,40.47L356.31,40.93L356.5,46.51L356.89,46.64L357.08,46.09L357.28,45.97L357.47,39.67L357.86,45.66L358.05,45.57L358.83,47.03L359.02,45.89L361.73,44.04L361.93,44.41L363.09,44.61L363.28,43.9L363.47,43.94L363.67,39.2L364.06,41.89L364.44,40.97L364.64,37.69L364.83,38.44L365.03,30.47L365.8,43.55L365.99,43.44L366.58,42.52L366.77,38.37L366.96,43.58L367.35,37.24L367.54,43.33L367.74,43.1L368.51,43.38L368.71,42.54L369.29,42.29L369.48,42.92L369.68,43.19L372,41.64L372.19,41.46L372.58,40.16L372.78,38.36L373.16,26.5L373.36,40.67L373.55,41.7L373.94,44.58L374.52,43.48L374.71,43.77L375.68,41.93L375.88,41.23L376.46,40.64L376.65,41.61L377.43,39.99L377.62,33.49L377.81,39.65L378.39,39.43L378.59,39.35L382.08,38.37L382.27,127.61L382.46,156.28L382.66,38.39L384.01,38.23L384.21,38.17L385.18,38.52L385.37,38.83L386.34,39.17L386.53,39.06L386.72,38.84L386.92,35.06L387.31,38.55L387.69,38.45L387.89,38.35L388.66,37.5L388.86,38.04L390.02,38.36L390.21,38.3L392.54,38.35L393.89,31.17L394.28,38.79L394.47,138.75L394.67,124.62L394.86,38.95L395.25,39.37L395.44,39.17L395.64,35.42L396.61,38.74L396.8,38.81L398.35,38.38L398.54,38.3L400.48,37.75L400.87,31.32L401.06,37.69L401.64,37.54L401.84,37.35L403.19,37.64L403.39,37.77L406.49,36.93L406.68,37.74L408.23,37.91L408.43,40L409.2,40.31L409.39,40.14L410.36,40.63L410.56,38.81L410.75,38.77L410.94,39.79L411.33,39.9L411.53,38.75L412.11,37.11L412.3,32.67L412.49,25.33L412.88,35.22L413.08,36.96L413.27,37.02L413.46,31.23L414.43,37.28L414.63,37.32L415.98,37.5L416.18,34.25L416.37,34.47L416.56,37.4L418.11,36.99L418.31,33.84L419.08,37.08L419.28,36.56L419.47,36.66L420.24,36.14L420.44,31.33L420.63,30.71L420.83,34.03L421.21,35.2L421.79,35.07L421.99,35.07L422.38,35.07L422.57,30.39L423.34,36.18L423.54,36.27L423.93,32.16L424.12,35.84L424.51,35.75L424.7,33.83L424.89,34.05L425.09,36.46L425.28,36L425.47,33.26L425.86,37.97L426.25,36.91L426.44,37.22L427.03,35.97L427.22,37.99L428.19,34.4L428.38,34.49L430.71,33.57L430.9,35.46L431.09,33.9L431.68,34.05L431.87,34L434.78,32.98L434.97,32.87L435.16,32.09L435.55,33.42L435.74,33.42L436.71,33.3L436.91,33.37L438.46,33.8L438.65,33.32L439.81,31.61L440.01,31.78L440.2,31.88L442.91,32.56L443.11,32.57L447.18,33.21L447.37,33.27L449.11,33.38L449.31,30.37L449.5,33.28L450.08,33.12L450.28,33.09L451.24,33.37L451.44,32.97L453.18,30.65L453.38,31.03L453.96,31.45L454.15,31.52L455.89,31.95L456.09,31.96L459.19,31.93L459.38,30.39L460.16,31.69L460.35,31.71L464.61,32.38L465.97,31.59L466.16,31.96L466.36,29.45L466.55,27.07L466.74,31.84L466.94,31.77L470.81,32.1L471.01,32.07L471.59,32.09L471.78,33.5L471.97,35.9L472.56,35.84L472.75,35.84L473.91,35.54L474.11,32.93L475.08,35.7L475.27,35.47L477.01,35.16L477.21,27.77L477.59,35.04L478.18,34.4L478.37,33.88L478.56,32.36L478.76,34.19L479.14,33.48L479.34,33.14L480.89,32.73L481.08,33.23L481.28,33.7L481.47,33L481.66,32.18L482.83,32.37L483.02,32.48L484.38,32.38L484.57,32.11L485.34,30.5L485.54,31.45L485.73,32.34L489.22,34.25L489.41,34.27L489.8,34.09L490.19,29.45L490.38,34.38L490.96,32.8L491.16,32.51L491.74,31.59L491.93,29.8L492.9,32.78L493.09,32.63L493.29,30.04L493.68,31.71L493.87,32.54L494.06,33.29L494.26,29.82L494.45,29.92L494.64,33.57L496,33.42L496.19,29.57L496.58,33.65L496.97,33.32L497.16,33.13L498.33,31.92L498.52,31.92L500.07,31.32L500.26,30.62L500.46,31.58L500.84,30.54L501.04,30.33L503.17,31.33L503.56,30.88L504.33,31.85L504.53,31.67L505.3,31.59L505.49,31.48L507.04,30.83L507.24,30.77L508.01,31.47L508.59,32.21L510.14,32.5L510.34,32.96L510.72,30.22L511.11,32.83L511.5,33.11L513.44,27.56L513.63,27.83L514.99,27.96L515.18,27.92L515.57,27.87L515.96,28.55L516.73,27.89L516.93,28.03L519.06,28.22L519.25,28.26L520.22,28.16L520.61,30.75L520.8,30.85L520.99,32.01L522.35,29.02L522.54,29.06L524.68,28.87L524.87,28.81L525.64,28.94L526.03,32.64L526.22,32.81L526.42,29.93L526.61,32.93L527,32.85" style="vector-effect: non-scaling-stroke; fill: none; stroke: rgb(31, 119, 180); stroke-opacity: 1; stroke-width: 2px; opacity: 1;"/></g><g class="points"/><g class="text"/></g><g class="trace scatter trace67f119d1-1744-4602-b8cb-e7a109ba12fc" style="stroke-miterlimit: 2; opacity: 1;"><g class="fills"/><g class="errorbars"/><g class="lines"><path class="js-line" d="M0,73.61L2.33,81.69L4.07,74.98L4.46,84.85L4.65,79.72L5.04,141.6L5.62,79.71L5.81,80.81L6.01,81.62L7.75,247.65L10.27,81.71L20.15,90.45L20.54,89.06L20.73,88.73L20.93,113.93L21.89,95.01L22.09,94.33L24.03,153.65L24.22,135.06L24.99,127.51L26.54,145.82L27.32,114.64L27.51,164.92L27.71,165.11L27.9,163.36L28.09,163.14L28.29,181.73L28.87,218.02L29.06,216.43L29.26,216.67L29.45,216.36L29.64,217.24L29.84,217.96L30.22,218.28L30.42,196.03L30.61,195.48L30.81,206.24L31.58,205.82L31.78,201.75L32.74,205.4L32.94,219.59L33.52,185.89L33.71,188.06L33.91,192.66L34.68,187.36L34.88,187.78L35.46,188.38L36.23,151.93L36.81,202.3L37.2,49.53L37.39,69.44L38.36,89.76L38.56,89.33L38.94,89.72L39.33,89.38L39.53,89.45L39.72,89.59L39.91,88.75L40.11,84.7L40.3,233.02L41.08,57.35L41.27,151.08L42.82,119.9L43.01,67.77L43.98,76.55L44.18,81.79L44.95,59.63L45.14,16L46.31,218.26L47.28,286.89L47.86,106.88L48.24,181.98L48.44,111.66L49.02,122.21L49.21,123.19L49.41,122.94L49.6,167.33L49.99,174.05L50.18,109.84L50.57,182.74L50.76,117.82L51.34,118.87L51.54,244.9L52.31,112.72L52.51,114.81L52.7,140.06L52.89,129.49L53.09,145.11L53.28,141.62L53.47,142.28L53.67,139.88L53.86,174.03L54.64,120.41L54.83,147.08L55.22,120.1L55.8,120.91L55.99,123.22L56.77,142.98L56.96,169L57.16,141.81L57.54,175.66L57.74,168.96L58.71,138.76L58.9,136.47L59.48,137.76L59.68,157.89L60.06,151.72L60.45,165.64L60.64,162.66L61.42,157.52L61.61,158L61.81,159.87L62,158.87L62.19,166.2L62.58,217.26L62.78,166.18L62.97,150.19L63.16,151.18L63.36,141.86L63.55,137.5L63.74,194.63L64.13,142.69L64.52,158.94L64.71,159L64.91,159.03L65.1,155.65L65.29,154.76L65.49,162.2L65.68,168.79L66.26,167.66L66.46,167.75L66.65,189.64L66.84,167.57L67.04,168.2L67.23,168.34L67.62,168.42L67.81,165.69L68.2,169.19L68.39,161.64L69.17,166.53L69.36,208.66L69.75,169.5L70.14,176.78L70.33,184.91L70.53,182.91L71.11,183.71L71.3,185.02L72.46,173.71L72.66,175.23L73.24,186.16L73.43,183.16L73.63,234.57L75.56,177.67L75.95,222.98L76.14,224.54L76.92,199.39L77.31,180.64L77.5,201.21L77.89,249.38L78.86,171.47L79.05,169.84L80.41,193.86L80.6,171.55L80.79,165.64L81.18,168.41L81.38,173.73L81.76,185.98L81.96,185.55L82.15,176.47L82.34,177.78L82.73,267.38L83.12,171.56L83.7,175.85L83.89,172.09L85.64,190.93L85.83,178.21L86.22,187.38L86.41,167.55L86.8,172.45L86.99,171.24L87.19,164.36L87.38,193.1L87.58,147.38L87.96,168.73L88.16,145.1L88.54,147.1L88.74,146.79L88.93,153.4L89.51,143.98L89.9,145.41L90.09,162.08L90.29,161.64L90.48,162.76L90.68,193.19L91.45,162.12L91.64,161.98L91.84,161.19L92.03,162.45L92.22,163.12L92.42,163.73L92.81,163L93,162.62L93.19,162.83L93.39,166.09L93.78,164.86L94.16,225.96L94.36,212.66L94.55,169.13L95.13,163.21L95.33,163.72L95.52,169.15L97.26,180.05L97.65,179.88L97.84,207.53L98.04,181.83L98.62,183.38L98.81,183.3L99.78,185.6L99.97,185.83L100.17,186.09L100.36,189.83L101.14,216.06L101.33,213.55L101.53,214.74L101.72,215.44L101.91,236.81L102.49,175.05L103.08,175.56L103.27,176.11L104.24,177.78L104.43,183.84L105.4,186.04L105.59,186.45L106.76,186.74L106.95,201.93L107.34,206.52L107.72,188.49L107.92,188.26L108.69,188.37L108.89,190.84L111.6,251.33L111.79,229.42L111.99,235.13L112.18,229.78L112.38,181.69L113.15,194.62L113.34,193.18L113.54,193.08L113.73,190.39L113.93,184.93L114.12,203.21L115.09,282.64L115.28,208.67L115.86,264.38L116.06,178.45L116.25,179.25L116.44,165.89L116.83,164.09L117.03,170.08L117.22,161.41L117.41,162.47L117.61,161.33L117.8,250.94L118.77,158.75L118.96,167.43L119.35,191.7L119.54,176.1L119.74,175.13L120.32,178.15L120.9,177.86L121.09,177.94L123.03,184.6L123.22,183.67L123.61,184.18L123.81,179.49L124.19,187.1L124.58,186.43L124.78,186.41L124.97,187.01L125.16,186.38L125.36,211.92L125.74,234.67L126.13,193.5L126.33,193.9L126.52,195.4L126.71,293.66L127.1,209.15L127.29,191.88L128.46,199.47L128.65,199.71L129.43,198.77L129.62,201.01L130.2,201.87L130.39,202.5L130.59,202.67L130.78,200.31L131.17,200.17L131.36,217.16L132.14,201.15L132.33,201.77L132.72,201.25L133.3,202.1L133.49,201.77L134.08,199.61L134.46,200.23L134.66,200.55L134.85,200.98L135.04,208.36L135.82,201.46L136.01,203.92L136.4,207.12L136.98,206.25L137.18,206.33L137.76,207.32L137.95,205.43L138.14,207.59L138.72,207.32L138.92,204.62L139.5,206.76L139.69,205.38L139.89,205.01L140.86,208.34L141.05,208.05L141.24,206.55L141.63,208.05L141.83,247.97L142.6,268.02L142.79,227.06L143.57,210.58L143.76,210.94L143.96,212.3L144.15,235.05L144.34,276.05L144.73,211.8L144.93,206.43L145.12,207.12L145.7,206.72L145.89,204.21L146.09,204.17L146.28,204.91L148.8,209.51L148.99,208.85L149.19,210.63L149.38,210.13L149.77,210.39L149.96,211.75L150.16,212.79L150.35,267.26L150.74,217.64L151.13,219.44L151.32,214.77L151.51,213.33L152.09,213.74L152.29,218.17L152.48,214.58L153.06,216.13L153.26,215.63L153.84,216.63L154.03,228.45L154.81,216.36L155,216.54L155.39,216.21L155.58,229.59L155.78,217.76L156.36,219.65L156.55,220.16L158.29,221.37L158.49,220.5L160.23,221.18L160.43,221.13L161.01,222.43L161.2,220.24L161.78,223.55L161.97,223.48L162.17,223.58L162.36,223.62L162.56,241.05L162.94,221.92L163.33,224.53L163.53,224.5L164.11,225.03L164.3,225.11L165.08,224.46L165.27,238.59L166.04,225.19L166.24,225.28L166.43,225.66L167.4,224.53L167.59,224.96L167.79,225.23L167.98,227.93L168.37,225.2L168.56,225.23L168.76,261L170.89,239.37L171.28,288.38L171.47,275.66L172.05,282.51L172.63,214.05L172.83,230.87L173.6,301.87L174.76,195.05L174.96,272.98L175.73,205.84L176.12,279.04L176.31,192.82L176.51,295.39L177.47,272.43L177.67,185.04L178.25,197.04L178.44,199.59L179.61,214.53L179.8,216.8L181.16,222.05L181.35,223.12L181.74,238.95L181.93,225.08L182.32,222.95L182.51,220.44L182.9,220.96L183.09,220.1L183.29,220.23L184.26,220.14L184.45,219.95L184.84,220.88L185.03,220.39L185.22,260.16L186.19,218.05L186.39,217.51L186.78,217.84L187.16,215.25L187.74,215.53L187.94,215.82L188.91,222.9L189.1,223.14L189.68,223.8L189.88,250.63L190.07,273.89L190.26,231.26L190.46,232.31L190.65,229.32L191.04,227.82L191.23,245.9L191.43,246.28L195.69,219.13L196.46,208.87L196.66,252.38L196.85,259.32L197.04,210.74L197.43,211.5L197.63,211.9L198.98,218.09L199.18,221.39L199.95,239.04L200.72,239.15L201.69,237.81L201.89,243.24L202.66,208.45L203.24,214.96L203.44,208.21L203.63,214.32L203.83,249.09L204.02,210.29L204.6,212.23L204.79,212.85L205.76,262.57L206.15,219.48L206.34,216.83L206.73,216.89L209.25,208.89L210.03,204.04L210.22,205.33L210.41,244.45L210.8,212.31L211.19,233.53L211.58,257.47L211.77,219.8L212.35,257.66L212.74,238.52L213.13,241.06L213.32,242.54L213.51,241.59L213.71,243.27L213.9,243.17L214.09,254.5L214.68,241.6L215.06,241.69L215.26,241.95L215.64,242.42L215.84,242.97L217,244.35L217.19,244.26L218.55,244.95L218.74,244.44L218.94,244.33L219.91,244.58L220.1,244.98L220.29,244.93L220.49,253.01L220.68,245.74L220.88,253.31L221.26,246.08L221.46,245.83L222.23,244.47L222.43,255.64L223.2,273.33L223.39,243.33L224.17,241.63L224.36,241.21L225.72,242.88L225.91,244.21L227.85,248.17L228.04,247.3L228.82,247.81L229.01,248.01L229.21,248.39L229.4,247.5L229.59,255.69L230.76,250.72L230.95,250.56L231.53,247.4L231.72,247.61L231.92,247.69L232.89,248.92L233.08,248.8L233.47,248.71L233.66,249.92L233.86,249.89L234.05,264.08L235.02,251.19L235.21,250.69L235.99,250.78L236.18,250.88L237.93,252.77L238.12,252.28L238.31,260.62L238.89,253.25L239.09,253.05L239.47,253.03L239.67,276.28L240.64,256.04L240.83,256.04L241.8,252.12L241.99,253.02L243.16,253.03L243.35,254.31L244.32,254.18L244.51,254.19L247.22,254.51L247.42,255L248.19,255.07L248.39,255.41L248.58,255.66L248.97,255.13L249.16,255.13L249.94,255.06L259.43,244.88L259.63,246.86L259.82,235.97L260.01,236.22L260.21,233.46L260.4,225.88L260.98,227.24L261.18,228.37L261.76,240.4L261.95,280.66L263.11,299.47L263.31,262.9L263.5,260.19L263.69,238.03L264.28,238.53L264.47,239.35L264.66,239.33L264.86,237.27L266.02,245.3L266.21,245.74L267.57,248.76L267.76,248.54L268.73,248.54L268.93,248.75L270.47,250.25L270.67,251.93L271.83,254.44L272.03,254.32L272.22,252.9L272.99,254.6L273.19,254.55L273.77,287.36L273.96,262.91L274.16,284.38L274.54,257.9L274.74,257.68L276.09,254.99L276.29,255.15L277.45,255.7L277.64,257L277.84,255.28L278.03,258.03L278.22,257.84L278.42,258.07L279.19,257.89L279.39,259.11L279.97,258.51L280.16,259.42L280.74,259.15L280.94,259.63L281.71,259.37L281.91,259.32L283.07,259.07L283.26,258.68L284.43,259.24L284.62,257.03L285.59,259.28L285.78,259.75L286.94,259.53L287.14,261.8L287.33,259.42L287.53,272.28L288.3,259.75L288.49,260.07L288.69,260.16L289.27,260.54L289.46,260.38L289.66,260.33L289.85,261.12L290.63,299.51L291.21,281.18L291.4,281.33L291.59,283.02L291.98,293.93L292.18,261.25L292.37,261.03L292.95,277.36L293.14,257.71L293.53,286.48L293.72,263.22L293.92,261.49L294.11,278.37L294.5,258.78L294.69,261.43L294.89,263.58L295.28,284.6L295.47,258.19L295.66,285.16L296.83,260.69L297.6,255.77L297.79,262.58L297.99,255.02L298.57,255.43L298.76,255.65L299.93,257.06L300.12,256.49L300.51,263.41L300.89,260.08L301.09,260.15L303.03,260.61L303.22,275.81L304.38,262.52L304.58,262.61L304.77,262.26L304.96,263.04L305.16,263.17L306.13,265L306.32,262.89L307.09,262.53L307.29,263.5L307.68,263.01L307.87,263.82L308.06,264.36L308.26,263.36L308.45,267.87L309.61,264.49L309.81,263.65L310.39,263.68L310.58,268.29L310.78,287.33L311.55,273.04L311.74,279.78L311.94,269.6L312.13,266.52L312.52,265.44L312.71,264.33L313.1,263.73L313.29,262.9L313.49,278.89L313.68,259.92L313.88,264.93L314.07,264.66L314.46,265.04L314.65,263.88L314.84,264.52L315.04,264.37L316.01,266.72L316.2,266.68L316.39,266.79L316.78,270.47L316.97,269.18L317.17,273.09L317.56,268.71L318.14,274.39L318.91,292.66L319.11,270.93L319.69,268.26L320.08,268.91L320.27,268.84L320.66,269.82L321.24,269.54L321.43,268.82L321.63,269.44L321.82,269.32L322.01,267.91L323.37,270.2L323.56,266.97L323.76,272.76L324.34,271.79L324.53,271.76L325.31,269.01L325.5,269.33L325.69,269.5L326.47,270.89L326.66,278.74L326.86,297.86L327.44,284.3L327.63,276.57L327.83,294.46L328.21,292.25L328.41,275.18L328.6,279.36L328.99,275.11L329.18,274.95L329.38,274.83L329.57,283.67L330.54,272.26L330.73,272.45L330.93,272.54L331.31,271.89L331.7,272.35L331.89,272.73L332.09,272.64L332.28,293.01L333.44,273.25L333.64,273.62L334.03,273.27L334.22,273.95L334.41,273.53L334.61,273.51L335.38,274.15L335.96,299.16L336.35,274.01L336.93,279.85L337.13,273.95L337.71,274.38L337.9,274.83L338.09,274.93L338.29,274.25L338.48,272.46L338.68,272.89L339.06,272.1L339.26,271.73L339.84,273.46L340.03,272.56L340.22,272.53L340.42,272.05L340.81,272.85L341,272.83L342.16,272.84L342.36,275.73L342.55,275.81L342.74,276.84L342.94,277.55L343.13,292.53L343.52,277.73L343.71,293.18L344.49,303.42L345.26,275.49L345.46,276.54L345.65,276.58L345.84,289.05L346.23,276.36L346.43,276.55L346.62,276.58L346.81,275.62L347.2,295.56L347.39,277.25L347.59,276.6L347.78,276.66L347.97,281.7L348.36,276.4L348.56,277.03L348.75,290.58L349.53,275.57L349.91,276.31L350.11,276.44L350.69,277.1L350.88,278.02L351.27,277.05L351.46,278.37L351.66,279.65L352.04,279.56L352.24,278.18L352.63,278.3L352.82,275.35L353.01,281.8L353.21,281.89L353.4,280.34L353.59,296.69L353.98,287.63L354.18,279.94L354.95,279.07L355.14,299.07L355.72,279.97L355.92,293.65L356.11,293.19L357.28,277.18L357.47,291.94L358.24,275.93L358.44,276.53L358.63,276.4L358.83,277.22L359.41,277.15L359.6,278L359.79,278L359.99,277.19L360.96,278.5L361.15,278.31L361.73,281.86L361.93,280.95L362.12,281.01L363.47,281.12L363.67,293.5L364.06,303.66L364.44,283.92L364.64,300.65L365.03,301.9L365.41,281.65L365.61,281.77L365.8,281.7L366.38,281.2L366.58,288.38L367.16,279.41L367.35,293.92L367.54,278.8L368.13,278.85L368.32,279.2L369.48,279.32L369.68,280.36L369.87,279.01L370.06,272.1L371.03,280.4L371.22,281.2L372,282L372.19,280.93L372.58,281.47L372.78,295.55L373.16,303.64L373.36,284.83L373.94,283.89L374.13,285.51L374.91,285.79L375.1,285.63L376.07,284.81L376.26,285.92L376.46,285.88L376.65,287.6L377.43,286.8L377.62,292.29L378.59,285.9L378.78,285.72L378.97,282.74L379.17,285.76L379.36,285.7L379.56,285.74L379.75,283.08L380.33,283.19L380.53,283.76L381.69,284.99L381.88,286.31L382.08,285.17L382.27,299.67L383.04,286.22L383.43,286.4L383.63,286.38L384.21,286.63L384.4,286.22L384.59,286.08L386.72,286.51L386.92,289.43L387.69,285.96L387.89,286.13L388.08,286.28L388.66,286.48L388.86,287.46L389.05,290.75L389.63,290.64L389.83,290.33L390.99,292.27L391.18,291.71L392.34,291.51L392.54,291.63L393.89,301.13L394.09,291.93L394.47,294.13L395.06,289.61L395.25,290.01L395.44,287.43L395.64,293.33L395.83,292.21L396.03,291.79L397.77,291.97L397.96,291.58L399.32,291.91L399.51,291.61L400.48,291.82L400.87,301.02L401.26,291.48L401.64,292.28L401.84,292.47L402.61,292.24L402.81,292.02L404.16,292.58L404.36,292.5L405.71,292.13L405.91,291.29L406.49,292.69L406.88,292.49L407.07,292.24L407.26,292.36L407.46,291.51L408.04,292L408.43,291.63L408.62,291.76L409.78,290.38L409.97,290.63L410.94,290.7L411.14,290.73L411.91,293.35L412.11,292.52L412.3,288.39L412.88,298.91L413.27,295.56L413.46,294.54L413.66,284.07L414.04,293.11L414.24,293.87L414.63,292.91L414.82,294.58L415.01,291.99L415.21,294.78L415.59,293.28L415.79,292.35L415.98,291.86L416.18,294.73L416.37,294.73L416.56,292.11L416.95,293.35L417.34,292.98L417.53,292.66L417.72,292.24L417.92,292.9L418.11,292.6L418.31,294.01L418.89,283.85L419.08,292.33L419.28,291.35L420.24,292.46L420.44,299.37L421.21,292.82L421.6,293.57L421.79,293.36L422.57,298.03L422.76,293.7L422.96,292.88L423.54,293.42L423.73,294.8L423.93,303.04L424.12,293.11L424.31,293.16L424.51,294.79L425.47,303.67L425.67,291.65L425.86,298.47L426.44,293.95L426.64,296.18L427.22,295.08L427.41,295.15L427.61,295.19L428.19,294.93L428.38,294.77L429.35,295.21L429.54,295.07L431.09,295.17L431.29,295.6L433.03,295.88L433.22,295.75L434.19,294.96L434.39,295.83L434.78,299.07L434.97,296.2L435.16,295.2L435.36,294.99L435.55,295.64L435.74,296.21L436.13,295.63L436.52,295.91L436.71,296.01L439.81,295.98L440.01,295.93L441.75,295.4L441.94,295.35L442.91,295.91L443.11,296.16L444.46,296.38L444.66,297.84L446.21,298.13L446.4,298.7L446.59,297.97L447.18,298.53L447.37,298.33L448.34,298.21L448.53,298.28L449.11,298.33L449.31,300.99L449.69,298.36L450.08,298.54L450.28,298.51L452.02,298.93L452.21,298.72L453.18,298.92L453.38,298.33L453.76,298.24L453.96,299.07L454.15,296.81L454.73,297.13L454.93,297.24L456.09,297.89L456.28,297.26L457.83,298.01L458.03,297.91L459.19,298.55L459.38,301.73L459.58,298.54L460.16,298.81L460.35,298.91L461.71,299.28L461.9,299.42L463.26,299.48L463.45,299.61L464.03,299.5L464.22,299.72L464.42,299.74L464.61,299.77L465.97,301.05L466.16,300.54L466.36,301.45L466.55,303.16L466.74,299.12L467.33,299.5L467.52,299.5L469.07,299.37L469.26,298.98L470.23,299.32L470.43,299.1L471.39,300.62L471.59,300.31L472.75,299.52L472.94,299.49L473.91,299.32L474.11,301.34L474.69,299.29L474.88,299.4L475.08,299.36L476.24,299.95L476.43,299.42L477.21,301.33L477.4,301.09L477.59,299.47L477.79,299.38L477.98,300.54L478.37,299.47L478.76,300.12L478.95,300.27L479.53,301.24L479.72,300.82L479.92,299.37L481.08,299.35L481.28,299.05L482.24,299.55L482.44,299.65L484.96,300.02L485.34,302.04L485.73,299.77L486.31,300.05L486.51,300.18L487.47,300.48L487.67,300.58L489.8,301.22L490.19,303.77L490.96,301.15L491.16,301.12L491.74,300.97L491.93,302.3L492.32,300.9L492.71,301.03L492.9,301.09L493.09,301.33L493.29,303.48L494.06,301.08L494.26,301.25L494.45,302L494.64,300.95L495.22,301.33L495.42,301.44L496,301.65L496.19,302.77L496.58,301.6L496.97,301.78L497.16,301.75L500.07,302.7L500.26,302.57L501.23,301.89L501.43,301.99L507.82,303.87L508.01,303.89L509.18,303.36L509.37,303.54L520.8,303.72L520.99,303.55L525.45,303.98L525.64,303.92L527,303.3" style="vector-effect: non-scaling-stroke; fill: none; stroke: rgb(255, 127, 14); stroke-opacity: 1; stroke-width: 2px; opacity: 1;"/></g><g class="points"/><g class="text"/></g></g></g><g class="overplot"/><path class="xlines-above crisp" d="M0,0" style="fill: none;"/><path class="ylines-above crisp" d="M0,0" style="fill: none;"/><g class="overlines-above"/><g class="xaxislayer-above"><g class="xtick"><text text-anchor="middle" x="0" y="433" transform="translate(145.1,0)" style="font-family: 'Open Sans', verdana, arial, sans-serif; font-size: 12px; fill: rgb(68, 68, 68); fill-opacity: 1; white-space: pre;">2010</text></g><g class="xtick"><text text-anchor="middle" x="0" y="433" transform="translate(215.82,0)" style="font-family: 'Open Sans', verdana, arial, sans-serif; font-size: 12px; fill: rgb(68, 68, 68); fill-opacity: 1; white-space: pre;">2011</text></g><g class="xtick"><text text-anchor="middle" x="0" y="433" transform="translate(286.53999999999996,0)" style="font-family: 'Open Sans', verdana, arial, sans-serif; font-size: 12px; fill: rgb(68, 68, 68); fill-opacity: 1; white-space: pre;">2012</text></g><g class="xtick"><text text-anchor="middle" x="0" y="433" transform="translate(357.45,0)" style="font-family: 'Open Sans', verdana, arial, sans-serif; font-size: 12px; fill: rgb(68, 68, 68); fill-opacity: 1; white-space: pre;">2013</text></g><g class="xtick"><text text-anchor="middle" x="0" y="433" transform="translate(428.17,0)" style="font-family: 'Open Sans', verdana, arial, sans-serif; font-size: 12px; fill: rgb(68, 68, 68); fill-opacity: 1; white-space: pre;">2014</text></g><g class="xtick"><text text-anchor="middle" x="0" y="433" transform="translate(498.89,0)" style="font-family: 'Open Sans', verdana, arial, sans-serif; font-size: 12px; fill: rgb(68, 68, 68); fill-opacity: 1; white-space: pre;">2015</text></g><g class="xtick"><text text-anchor="middle" x="0" y="433" transform="translate(569.61,0)" style="font-family: 'Open Sans', verdana, arial, sans-serif; font-size: 12px; fill: rgb(68, 68, 68); fill-opacity: 1; white-space: pre;">2016</text></g></g><g class="yaxislayer-above"><g class="ytick"><text text-anchor="end" x="79" y="4.199999999999999" transform="translate(0,409.21)" style="font-family: 'Open Sans', verdana, arial, sans-serif; font-size: 12px; fill: rgb(68, 68, 68); fill-opacity: 1; white-space: pre;">0</text></g><g class="ytick"><text text-anchor="end" x="79" y="4.199999999999999" transform="translate(0,357.26)" style="font-family: 'Open Sans', verdana, arial, sans-serif; font-size: 12px; fill: rgb(68, 68, 68); fill-opacity: 1; white-space: pre;">50</text></g><g class="ytick"><text text-anchor="end" x="79" y="4.199999999999999" transform="translate(0,305.32)" style="font-family: 'Open Sans', verdana, arial, sans-serif; font-size: 12px; fill: rgb(68, 68, 68); fill-opacity: 1; white-space: pre;">100</text></g><g class="ytick"><text text-anchor="end" x="79" y="4.199999999999999" transform="translate(0,253.37)" style="font-family: 'Open Sans', verdana, arial, sans-serif; font-size: 12px; fill: rgb(68, 68, 68); fill-opacity: 1; white-space: pre;">150</text></g><g class="ytick"><text text-anchor="end" x="79" y="4.199999999999999" transform="translate(0,201.42000000000002)" style="font-family: 'Open Sans', verdana, arial, sans-serif; font-size: 12px; fill: rgb(68, 68, 68); fill-opacity: 1; white-space: pre;">200</text></g><g class="ytick"><text text-anchor="end" x="79" y="4.199999999999999" transform="translate(0,149.47)" style="font-family: 'Open Sans', verdana, arial, sans-serif; font-size: 12px; fill: rgb(68, 68, 68); fill-opacity: 1; white-space: pre;">250</text></g></g><g class="overaxes-above"/></g></g><g class="polarlayer"/><g class="ternarylayer"/><g class="geolayer"/><g class="pielayer"/><g class="glimages"/><defs id="topdefs-d709a7"><g class="clips"/><clipPath id="legendd709a7"><rect width="70" height="48" x="0" y="0"/></clipPath></defs><g class="layer-above"><g class="imagelayer"/><g class="shapelayer"/></g><g class="infolayer"><g class="legend" pointer-events="all" transform="translate(617.54, 100)"><rect class="bg" shape-rendering="crispEdges" width="70" height="48" x="0" y="0" style="stroke: rgb(68, 68, 68); stroke-opacity: 1; fill: rgb(255, 255, 255); fill-opacity: 1; stroke-width: 0px;"/><g class="scrollbox" transform="translate(0, 0)" clip-path="url(#legendd709a7)"><g class="groups"><g class="traces" transform="translate(0, 14.5)" style="opacity: 1;"><text class="legendtext user-select-none" text-anchor="start" x="40" y="4.680000000000001" style="font-family: 'Open Sans', verdana, arial, sans-serif; font-size: 12px; fill: rgb(68, 68, 68); fill-opacity: 1; white-space: pre;">BHP</text><rect class="legendtoggle" pointer-events="all" x="0" y="-9.5" width="110" height="19" style="cursor: pointer; fill: rgb(0, 0, 0); fill-opacity: 0;"/><g class="layers" style="opacity: 1;"><g class="legendfill"/><g class="legendlines"><path class="js-line" d="M5,0h30" style="fill: none; stroke: rgb(31, 119, 180); stroke-opacity: 1; stroke-width: 2px;"/></g><g class="legendsymbols"><g class="legendpoints"/></g></g></g><g class="traces" transform="translate(0, 33.5)" style="opacity: 1;"><text class="legendtext user-select-none" text-anchor="start" x="40" y="4.680000000000001" style="font-family: 'Open Sans', verdana, arial, sans-serif; font-size: 12px; fill: rgb(68, 68, 68); fill-opacity: 1; white-space: pre;">oil</text><rect class="legendtoggle" pointer-events="all" x="0" y="-9.5" width="110" height="19" style="cursor: pointer; fill: rgb(0, 0, 0); fill-opacity: 0;"/><g class="layers" style="opacity: 1;"><g class="legendfill"/><g class="legendlines"><path class="js-line" d="M5,0h30" style="fill: none; stroke: rgb(255, 127, 14); stroke-opacity: 1; stroke-width: 2px;"/></g><g class="legendsymbols"><g class="legendpoints"/></g></g></g></g></g><rect class="scrollbar" rx="20" ry="3" width="0" height="0" x="0" y="0" style="fill: rgb(128, 139, 164); fill-opacity: 1;"/></g><g class="g-gtitle"><text class="gtitle" x="350" y="50" text-anchor="middle" dy="0em" style="font-family: 'Open Sans', verdana, arial, sans-serif; font-size: 17px; fill: rgb(68, 68, 68); opacity: 1; font-weight: normal; white-space: pre;">ABC</text></g><g class="g-xtitle"/><g class="g-ytitle"/></g></svg>